<?xml version="1.0" standalone="no"?>
<!DOCTYPE svg PUBLIC "-//W3C//DTD SVG 20010904//EN"
 "http://www.w3.org/TR/2001/REC-SVG-20010904/DTD/svg10.dtd">
<svg version="1.0" xmlns="http://www.w3.org/2000/svg"
 width="280.000000pt" height="280.000000pt" viewBox="0 0 280.000000 280.000000"
 preserveAspectRatio="xMidYMid meet">

<g transform="translate(0.000000,280.000000) scale(0.100000,-0.100000)"
fill="#000000" stroke="none">
<path d="M1285 2683 c-195 -24 -331 -64 -481 -142 -626 -328 -870 -1094 -551
-1727 150 -298 425 -534 742 -639 44 -14 131 -35 193 -46 334 -57 676 20 957
216 90 63 247 220 310 310 359 514 300 1208 -140 1651 -150 151 -313 251 -519
319 -154 51 -371 76 -511 58z m385 -72 c497 -115 869 -506 954 -1001 44 -256
6 -520 -109 -755 -67 -138 -146 -246 -261 -355 -105 -100 -199 -165 -326 -225
-171 -80 -328 -114 -529 -115 -590 -1 -1088 406 -1216 992 -22 102 -25 381 -5
473 49 221 119 375 247 540 185 238 457 403 750 454 33 6 71 13 85 15 62 11
328 -4 410 -23z"/>
<path d="M1335 2573 c-32 -8 -65 -44 -65 -73 0 -29 51 -222 76 -285 19 -47 28
-55 71 -55 23 0 37 7 48 24 21 32 66 238 68 310 2 55 0 61 -23 73 -24 12 -133
16 -175 6z"/>
<path d="M1009 2480 c-79 -47 -93 -62 -85 -93 7 -28 234 -262 264 -271 23 -8
80 17 88 37 6 16 -36 163 -77 267 -26 67 -34 80 -61 89 -46 16 -57 14 -129
-29z"/>
<path d="M1675 2510 c-33 -13 -41 -28 -88 -165 -64 -188 -64 -189 -21 -216 28
-17 40 -19 57 -12 33 15 119 96 202 189 55 61 72 88 68 103 -6 23 -149 111
-179 110 -10 0 -28 -4 -39 -9z"/>
<path d="M715 2289 c-87 -82 -86 -94 8 -160 88 -62 189 -123 240 -144 38 -16
38 -15 67 14 37 36 36 40 -56 188 -89 143 -108 163 -156 163 -32 0 -46 -9
-103 -61z"/>
<path d="M1933 2328 c-24 -27 -132 -196 -161 -254 l-21 -41 34 -33 34 -33 61
31 c70 37 211 129 259 169 44 38 38 54 -45 126 -55 47 -72 57 -103 57 -26 0
-44 -7 -58 -22z"/>
<path d="M475 2080 c-38 -48 -55 -78 -53 -93 2 -17 32 -36 138 -90 74 -37 159
-75 189 -84 l55 -16 23 27 c13 15 23 34 23 43 0 18 -37 67 -134 178 -91 104
-92 105 -142 105 -40 0 -45 -3 -99 -70z"/>
<path d="M2116 2067 c-86 -95 -156 -185 -156 -202 0 -6 13 -24 30 -40 l29 -28
63 23 c70 26 226 99 276 130 46 28 42 54 -23 133 -53 64 -57 67 -99 67 -43 0
-47 -3 -120 -83z"/>
<path d="M360 1877 c-27 -13 -56 -84 -67 -162 -4 -36 -2 -45 14 -53 40 -22
364 -42 407 -26 8 3 20 22 27 42 15 46 11 49 -171 142 -143 72 -167 79 -210
57z"/>
<path d="M2289 1844 c-52 -25 -123 -62 -157 -82 -64 -37 -64 -37 -59 -76 3
-21 11 -43 19 -47 18 -12 178 -11 300 2 145 15 149 21 106 157 -34 107 -68
114 -209 46z"/>
<path d="M946 1814 c-43 -44 -35 -61 72 -150 87 -72 746 -619 865 -717 37 -30
53 -38 72 -33 29 8 58 47 53 74 -4 23 -995 852 -1019 852 -9 0 -28 -12 -43
-26z"/>
<path d="M1739 1772 c-281 -196 -339 -237 -339 -242 1 -3 12 -13 25 -23 l25
-18 210 157 c115 86 210 159 210 163 0 9 -22 31 -29 31 -4 -1 -49 -31 -102
-68z"/>
<path d="M1874 1738 c-185 -143 -365 -291 -362 -299 2 -6 15 -18 29 -26 26
-16 27 -15 213 146 102 89 186 166 186 170 0 9 -22 31 -31 31 -3 0 -19 -10
-35 -22z"/>
<path d="M290 1553 l-32 -27 4 -84 c7 -126 1 -124 228 -70 181 43 190 48 190
98 0 50 -7 53 -174 80 -67 11 -135 22 -152 25 -25 4 -39 -1 -64 -22z"/>
<path d="M2335 1549 c-115 -17 -180 -31 -192 -41 -22 -18 -16 -66 10 -83 25
-16 180 -65 284 -89 87 -20 95 -12 101 93 4 75 3 84 -18 106 -26 28 -69 31
-185 14z"/>
<path d="M1200 1392 c-254 -179 -285 -206 -313 -269 -19 -42 -29 -85 -33 -139
-10 -137 -33 -172 -106 -162 -27 5 -45 -3 -100 -41 -52 -35 -68 -52 -68 -70 0
-21 -3 -23 -34 -18 -23 4 -39 1 -46 -8 -9 -11 -5 -18 22 -35 18 -11 38 -20 43
-20 6 0 48 27 94 60 64 46 91 60 118 60 47 0 109 36 127 74 8 17 22 58 31 91
13 48 26 68 61 100 35 31 46 49 50 80 3 22 7 50 10 62 4 20 136 138 225 201
21 15 39 30 39 34 0 4 -12 16 -28 26 l-28 20 -64 -46z m-203 -298 c8 -22 -10
-49 -32 -49 -22 0 -40 27 -32 49 8 21 56 21 64 0z"/>
<path d="M1223 1227 c-113 -89 -144 -119 -152 -146 -6 -19 -23 -47 -37 -63
l-28 -28 41 0 c26 0 50 8 69 22 53 41 319 271 322 278 4 10 -47 50 -62 49 -6
0 -75 -51 -153 -112z"/>
<path d="M2049 1088 c-29 -35 -39 -54 -33 -66 9 -21 5 -61 -8 -85 -14 -26 -76
-51 -93 -37 -10 8 -25 -4 -64 -51 -55 -66 -55 -66 -22 -143 l17 -40 192 229
c106 127 189 231 185 232 -5 1 -36 3 -71 5 l-62 4 -41 -48z"/>
<path d="M2055 890 c-104 -126 -190 -233 -190 -238 0 -11 140 -132 153 -132 5
0 86 91 178 201 222 265 218 259 208 268 -46 38 -132 109 -144 118 -12 9 -48
-28 -205 -217z"/>
<path d="M740 1074 c-89 -30 -120 -62 -120 -128 0 -33 -6 -40 -85 -98 -73 -54
-84 -67 -84 -93 -1 -16 3 -36 8 -44 13 -21 39 2 43 37 3 23 7 27 32 25 21 -2
45 10 87 44 58 46 59 46 59 98 0 70 17 85 98 85 59 0 62 1 62 24 0 13 3 31 6
40 5 13 -2 16 -42 15 -27 0 -56 -3 -64 -5z"/>
<path d="M1450 868 c36 -79 22 -160 -31 -189 -16 -8 -25 -7 -39 6 -20 18 -40
93 -40 147 0 31 0 31 -20 13 -11 -10 -28 -43 -36 -72 -14 -50 -14 -59 0 -103
22 -67 20 -87 -9 -106 -23 -15 -27 -15 -49 -1 -27 18 -40 66 -26 102 14 36
-11 33 -43 -5 -33 -39 -40 -76 -27 -136 33 -148 182 -247 324 -215 123 27 206
118 222 242 l6 54 -24 -35 c-19 -28 -30 -35 -57 -35 -50 0 -60 23 -38 84 23
67 21 108 -8 168 -22 43 -99 123 -119 123 -3 0 4 -19 14 -42z"/>
</g>
</svg>
